<svg width="16" height="17" viewBox="0 0 16 17" fill="none" xmlns="http://www.w3.org/2000/svg">
<g id="Vector">
<path d="M6.62698 2.26667C6.12799 0.453333 7.25072 0 7.87445 0C8.49821 0 9.62098 0.453333 9.12199 2.26667H6.62698Z" fill="#25B8F2"/>
<path d="M14.1118 9.06665C14.1118 11.3333 15.3593 10.7667 15.3593 13.0333H12.8643V9.06665H14.1118Z" fill="#25B8F2"/>
<path d="M1.63712 9.06665C1.63712 11.3333 0.389648 10.7667 0.389648 13.0333H2.8846V9.06665H1.63712Z" fill="#25B8F2"/>
<path d="M10.0354 15.9247C9.41247 16.7688 8.38886 17 7.87441 17C7.35996 17 6.33635 16.7688 5.71347 15.9247C5.50507 15.6423 5.76124 15.3 6.12814 15.3H9.62068C9.98757 15.3 10.2437 15.6423 10.0354 15.9247Z" fill="#25B8F2"/>
<path d="M9.12197 1.13333C9.12197 1.75926 8.56346 2.26667 7.8745 2.26667C7.18554 2.26667 6.62702 1.75926 6.62702 1.13333C6.62702 0.507411 7.18549 0 7.87445 0C8.56342 0 9.12197 0.507411 9.12197 1.13333Z" fill="#25B8F2"/>
<path d="M1.63704 6.96663C1.63704 3.74497 4.4296 1.1333 7.87441 1.1333C11.3192 1.1333 14.1118 3.74497 14.1118 6.96663V13.6H1.63704V6.96663Z" fill="#25B8F2"/>
<path d="M0.389648 13.0333C0.389648 12.0944 1.20344 11.3334 2.20735 11.3334H13.5416C14.5455 11.3334 15.3593 12.0944 15.3593 13.0333C15.3593 13.9722 14.5455 14.7334 13.5416 14.7334H2.20735C1.20344 14.7334 0.389648 13.9722 0.389648 13.0333Z" fill="#25B8F2"/>
</g>
</svg>
