<svg width="21" height="17" viewBox="0 0 21 17" fill="none" xmlns="http://www.w3.org/2000/svg">
<path id="Vector (Stroke)" fill-rule="evenodd" clip-rule="evenodd" d="M15.6349 0.268549C16.0373 -0.0895166 16.689 -0.0895165 17.0915 0.26855L19.9269 2.79109C20.1207 2.96354 20.2297 3.19766 20.2297 3.4418C20.2297 3.68595 20.1207 3.92006 19.9269 4.09251L10.0029 12.9214C9.80958 13.0934 9.54765 13.1899 9.27458 13.1899H6.43914C5.8697 13.1899 5.40807 12.7784 5.40807 12.2707V9.74814C5.40807 9.504 5.517 9.26988 5.71085 9.09743L15.6349 0.268549ZM15.6963 2.81117L17.072 4.03506L17.7389 3.4418L16.3632 2.21791L15.6963 2.81117ZM15.6123 5.3337L14.2366 4.10981L7.47022 10.1295V11.3514H8.84814L15.6123 5.3337ZM3.04506 3.62223L11.0363 3.62223C11.6057 3.62223 12.0674 3.21066 12.0674 2.70297C12.0674 2.19527 11.6057 1.7837 11.0363 1.7837L2.51522 1.7837C1.67104 1.7837 0.98291 2.39306 0.98291 3.14889L0.982911 15.6348C0.982911 16.3906 1.67104 17 2.51523 17H16.5499C17.3941 17 18.0822 16.3906 18.0822 15.6348V8.05407C18.0822 7.54638 17.6206 7.13481 17.0511 7.13481C16.4817 7.13481 16.0201 7.54638 16.0201 8.05407V15.1615H3.04506L3.04506 3.62223Z" fill="#25B8F2"/>
</svg>
