<svg width="17" height="17" viewBox="0 0 17 17" fill="none" xmlns="http://www.w3.org/2000/svg">
<path id="Vector (Stroke)" fill-rule="evenodd" clip-rule="evenodd" d="M2.54134 0.772727C2.54134 0.345962 2.91928 0 3.38549 0H16.0478C16.514 0 16.892 0.345962 16.892 0.772727V16.2273C16.892 16.654 16.514 17 16.0478 17H3.38549C2.91928 17 2.54134 16.654 2.54134 16.2273V13.1364C2.54134 12.7096 2.91928 12.3636 3.38549 12.3636C3.85171 12.3636 4.22965 12.7096 4.22965 13.1364V15.4545H15.2037V1.54545H4.22965V3.86364C4.22965 4.2904 3.85171 4.63636 3.38549 4.63636C2.91928 4.63636 2.54134 4.2904 2.54134 3.86364V0.772727ZM7.89594 3.03599L13.2681 7.9536C13.5978 8.25537 13.5978 8.74463 13.2681 9.0464L7.89594 13.964C7.56628 14.2658 7.03179 14.2658 6.70213 13.964C6.37246 13.6622 6.37246 13.173 6.70213 12.8712L10.6332 9.27273H1.69718C1.23097 9.27273 0.853027 8.92677 0.853027 8.5C0.853027 8.07323 1.23097 7.72727 1.69718 7.72727H10.6332L6.70213 4.12879C6.37246 3.82703 6.37246 3.33776 6.70213 3.03599C7.03179 2.73422 7.56628 2.73422 7.89594 3.03599Z" fill="#25B8F2"/>
</svg>
