<svg width="24" height="27" viewBox="0 0 24 27" fill="none" xmlns="http://www.w3.org/2000/svg">
<path id="Vector (Stroke)" fill-rule="evenodd" clip-rule="evenodd" d="M2.52632 1.22727C2.52632 0.549469 3.09185 0 3.78947 0H22.7368C23.4345 0 24 0.549469 24 1.22727V25.7727C24 26.4505 23.4345 27 22.7368 27H3.78947C3.09185 27 2.52632 26.4505 2.52632 25.7727V20.8636C2.52632 20.1858 3.09185 19.6364 3.78947 19.6364C4.4871 19.6364 5.05263 20.1858 5.05263 20.8636V24.5455H21.4737V2.45455H5.05263V6.13636C5.05263 6.81417 4.4871 7.36364 3.78947 7.36364C3.09185 7.36364 2.52632 6.81417 2.52632 6.13636V1.22727ZM10.5387 4.82187L18.5774 12.6322C19.0707 13.1115 19.0707 13.8885 18.5774 14.3678L10.5387 22.1781C10.0454 22.6574 9.24563 22.6574 8.75233 22.1781C8.25904 21.6989 8.25904 20.9218 8.75233 20.4425L14.6347 14.7273H1.26316C0.565535 14.7273 0 14.1778 0 13.5C0 12.8222 0.565535 12.2727 1.26316 12.2727H14.6347L8.75233 6.5575C8.25904 6.07822 8.25904 5.30115 8.75233 4.82187C9.24563 4.34259 10.0454 4.34259 10.5387 4.82187Z" fill="white"/>
</svg>
